<?xml version="1.0" encoding="iso-8859-1"?>
<!-- Generator: Adobe Illustrator 19.0.0, SVG Export Plug-In . SVG Version: 6.00 Build 0)  -->
<svg version="1.1" id="Capa_1" xmlns="http://www.w3.org/2000/svg" xmlns:xlink="http://www.w3.org/1999/xlink" x="0px" y="0px"
	 viewBox="0 0 512 512" style="enable-background:new 0 0 512 512;" xml:space="preserve">
<g>
	<g>
		<g>
			<path d="M197.188,230.418H164.45c-12.534,0-22.731,10.197-22.731,22.731v54.378c0,12.533,10.197,22.73,22.731,22.73h32.738
				c12.533,0,22.73-10.197,22.73-22.73v-54.378C219.918,240.615,209.721,230.418,197.188,230.418z M204.918,307.527
				c0,4.263-3.468,7.73-7.73,7.73H164.45c-4.263,0-7.731-3.468-7.731-7.73v-54.378c0-4.263,3.469-7.731,7.731-7.731h32.738
				c4.263,0,7.73,3.468,7.73,7.731V307.527z"/>
			<path d="M371.05,269.117c0.127-6.329-3.822-11.926-9.827-13.928l-57.936-19.312c-5.197-1.732-10.836-0.402-14.713,3.474
				c-3.876,3.876-5.207,9.513-3.474,14.713l19.312,57.934c1.971,5.911,7.425,9.831,13.632,9.831c0.099,0,0.197-0.001,0.296-0.003
				c6.329-0.127,11.764-4.297,13.523-10.378l4.085-14.116l19.019,19.019c1.465,1.464,3.385,2.197,5.304,2.197
				s3.839-0.732,5.304-2.197c2.929-2.929,2.929-7.678,0-10.606l-19.02-19.02l14.116-4.085
				C366.752,280.881,370.923,275.446,371.05,269.117z M333.83,274.79c-4.768,1.379-8.438,5.049-9.815,9.815l-6.006,20.752
				l-18.285-54.857l54.856,18.285L333.83,274.79z"/>
			<circle cx="256" cy="119.308" r="7.236"/>
			<path d="M488.84,352.821h-12.774V189.017c0-4.142-3.357-7.5-7.5-7.5c-4.142,0-7.5,3.358-7.5,7.5v163.804h-27.575
				c1.013-2.617,1.574-5.457,1.574-8.427V155.631c0-12.918-10.51-23.427-23.428-23.427H100.363
				c-12.918,0-23.428,10.509-23.428,23.427v188.764c0,2.97,0.561,5.81,1.574,8.427H50.935v-212.72
				c0-18.693,15.208-33.901,33.9-33.901h342.33c18.692,0,33.9,15.208,33.9,33.901v13.659c0,4.142,3.358,7.5,7.5,7.5
				c4.143,0,7.5-3.358,7.5-7.5v-13.659c0-26.964-21.936-48.901-48.9-48.901H84.835c-26.964,0-48.9,21.937-48.9,48.901v212.719H23.16
				c-12.771,0-23.16,10.39-23.16,23.16v21.657c0,12.771,10.39,23.16,23.16,23.16h22.123c4.143,0,7.5-3.358,7.5-7.5
				c0-4.142-3.357-7.5-7.5-7.5H23.16c-4.499,0-8.16-3.661-8.16-8.16v-21.657c0-4.499,3.661-8.16,8.16-8.16h20.255
				c0.007,0,0.013,0.001,0.019,0.001c0.006,0,0.013-0.001,0.019-0.001h56.871c0.013,0,0.026,0.001,0.039,0.001h107.654l5.974,10.692
				c5.443,9.743,15.757,15.796,26.918,15.796h30.182c11.161,0,21.475-6.053,26.918-15.796l5.974-10.692h107.654
				c0.013,0,0.026-0.001,0.039-0.001h56.871c0.007,0,0.013,0.001,0.019,0.001c0.006,0,0.013-0.001,0.019-0.001h20.255
				c4.499,0,8.16,3.661,8.16,8.16v21.657c0,4.499-3.661,8.16-8.16,8.16H80.344c-4.143,0-7.5,3.358-7.5,7.5
				c0,4.142,3.357,7.5,7.5,7.5H488.84c12.771,0,23.16-10.39,23.16-23.16v-21.657C512,363.211,501.61,352.821,488.84,352.821z
				 M284.913,371.199c-2.795,5.003-8.091,8.111-13.822,8.111h-30.182c-5.731,0-11.027-3.108-13.822-8.112l-1.886-3.376h61.598
				L284.913,371.199z M411.656,352.822H299.683c-0.006,0-0.012,0-0.019,0h-87.328c-0.007,0-0.014,0-0.021,0H100.344
				c-4.638-0.011-8.409-3.786-8.409-8.427V207.855h328.129v136.541h0.001C420.065,349.036,416.295,352.811,411.656,352.822z
				 M420.065,192.855L420.065,192.855H91.936v-37.223c0-4.647,3.78-8.427,8.428-8.427h311.273c4.648,0,8.428,3.78,8.428,8.427
				V192.855z"/>
		</g>
	</g>
</g>
<g>
</g>
<g>
</g>
<g>
</g>
<g>
</g>
<g>
</g>
<g>
</g>
<g>
</g>
<g>
</g>
<g>
</g>
<g>
</g>
<g>
</g>
<g>
</g>
<g>
</g>
<g>
</g>
<g>
</g>
</svg>
